<?xml version="1.0" standalone="no"?>
<!DOCTYPE svg PUBLIC "-//W3C//DTD SVG 20010904//EN"
 "http://www.w3.org/TR/2001/REC-SVG-20010904/DTD/svg10.dtd">
<svg version="1.0" xmlns="http://www.w3.org/2000/svg"
 width="512.000000pt" height="512.000000pt" viewBox="0 0 512.000000 512.000000"
 preserveAspectRatio="xMidYMid meet">

<g transform="translate(0.000000,512.000000) scale(0.100000,-0.100000)"
fill="#000000" stroke="none">
<path d="M2290 4849 c-522 -57 -1014 -292 -1385 -664 -362 -362 -581 -804
-657 -1328 l-13 -89 -50 61 c-71 87 -117 100 -165 48 -28 -29 -25 -70 7 -109
76 -92 209 -246 230 -265 45 -43 68 -33 224 98 190 159 206 184 150 240 -44
43 -69 38 -153 -32 -56 -47 -74 -58 -76 -45 -2 9 4 65 13 124 142 908 849
1624 1760 1783 387 67 822 17 1191 -138 l84 -35 0 -294 c0 -337 5 -378 59
-437 55 -61 78 -67 261 -67 188 0 173 20 135 -175 -39 -196 -34 -233 31 -249
31 -8 45 -1 286 151 109 67 202 123 207 123 14 0 90 -175 137 -315 305 -912
-40 -1917 -842 -2453 -335 -224 -771 -362 -1144 -362 -66 0 -74 -2 -101 -29
-32 -32 -35 -47 -18 -84 20 -44 47 -51 186 -44 568 29 1081 252 1486 647 380
369 602 804 683 1335 24 155 24 470 0 630 -35 234 -103 462 -202 674 -24 52
-43 95 -42 96 2 1 22 14 45 29 41 25 47 26 200 26 145 0 161 2 198 23 21 12
53 42 70 65 l30 44 3 430 3 431 -26 52 c-16 34 -40 63 -67 81 l-41 29 -681 3
c-766 3 -736 6 -801 -71 -21 -25 -38 -56 -42 -80 -4 -30 -9 -37 -22 -31 -155
67 -379 131 -556 160 -119 19 -472 27 -595 13z m2654 -165 c14 -13 16 -64 16
-400 0 -247 -4 -392 -10 -405 -10 -18 -23 -19 -173 -19 -151 0 -165 -2 -202
-23 -22 -13 -143 -88 -269 -166 -125 -78 -230 -141 -231 -139 -2 2 6 48 16
103 28 144 27 174 -5 202 -26 22 -32 23 -235 23 -148 0 -210 3 -219 12 -17 17
-17 799 0 816 9 9 168 12 654 12 571 0 644 -2 658 -16z"/>
<path d="M3783 4510 c-45 -18 -58 -90 -24 -131 l19 -24 502 -3 501 -3 29 30
c39 38 39 74 1 112 l-29 29 -489 -1 c-268 0 -498 -4 -510 -9z"/>
<path d="M3800 4203 c-61 -23 -79 -95 -35 -138 l24 -25 266 0 266 0 24 25 c32
31 32 75 1 112 l-24 28 -254 2 c-139 1 -260 -1 -268 -4z"/>
<path d="M4544 4201 c-55 -24 -70 -96 -29 -136 23 -24 30 -25 147 -25 81 1
128 5 139 13 44 33 47 97 7 133 -16 16 -39 19 -132 21 -61 2 -121 -1 -132 -6z"/>
<path d="M2401 4299 c-311 -55 -568 -308 -627 -616 -8 -41 -14 -130 -14 -198
l0 -123 -35 -22 c-19 -12 -47 -42 -62 -67 -25 -43 -27 -57 -31 -182 -6 -171 6
-234 54 -289 19 -23 43 -44 54 -47 17 -5 19 -19 22 -180 l3 -173 30 -43 c35
-49 84 -78 150 -87 45 -7 40 -9 -180 -76 -241 -75 -302 -103 -366 -168 -98
-101 -119 -175 -119 -424 0 -168 1 -183 21 -208 l20 -26 445 0 445 0 24 25
c14 13 25 31 25 40 0 15 -15 127 -25 189 -4 23 -2 27 13 23 198 -63 365 -68
521 -17 35 12 65 20 67 18 2 -2 -3 -50 -11 -106 -16 -110 -11 -143 24 -161 13
-7 169 -11 460 -11 l440 0 20 26 c20 25 21 40 21 214 0 159 -3 198 -20 252
-33 108 -104 194 -200 244 -19 9 -138 50 -265 90 -131 42 -217 73 -199 74 77
1 156 50 185 114 16 35 19 66 19 203 0 152 1 162 20 168 35 11 88 84 101 139
6 30 10 109 8 191 -4 131 -6 143 -31 187 -15 25 -44 56 -63 68 l-35 22 0 131
c0 75 -6 161 -15 199 -60 283 -280 516 -560 592 -73 20 -260 29 -334 15z m281
-168 c42 -11 98 -31 125 -44 64 -33 163 -108 190 -145 20 -27 18 -27 -44 14
-142 93 -342 138 -512 116 -133 -18 -237 -59 -366 -144 -16 -11 2 11 41 50
151 147 363 205 566 153z m15 -777 c58 -35 154 -69 216 -78 l49 -7 -4 -202
c-4 -169 -7 -210 -23 -249 l-19 -48 -183 0 c-176 0 -183 -1 -209 -23 -20 -17
-27 -33 -27 -57 0 -24 7 -40 27 -57 25 -21 36 -23 134 -23 115 0 120 -6 32
-40 -233 -92 -502 43 -565 285 -11 43 -15 109 -15 236 l0 177 43 7 c123 20
232 72 322 156 l60 57 58 -54 c32 -29 78 -66 104 -80z m-309 -951 c72 -21 217
-22 292 -1 30 9 62 17 70 19 12 3 16 -12 20 -77 5 -69 10 -87 33 -118 16 -20
45 -45 66 -55 l37 -20 -20 -153 -21 -153 -65 -33 c-162 -81 -362 -81 -528 0
l-67 33 -17 125 c-24 183 -24 183 16 203 19 8 47 33 63 53 25 33 28 47 32 121
2 68 6 83 17 79 8 -3 40 -13 72 -23z"/>
<path d="M429 2257 c-52 -15 -91 -43 -126 -89 -50 -68 -52 -135 -11 -348 82
-435 346 -865 695 -1133 283 -217 648 -363 984 -393 65 -6 82 -3 125 15 59 27
89 53 117 106 20 37 22 57 25 260 4 251 -2 284 -60 349 -48 55 -78 67 -292
111 -217 46 -252 40 -348 -52 l-46 -46 -69 46 c-147 98 -270 221 -371 372
l-40 59 49 55 c47 52 79 121 79 167 0 26 -65 333 -81 382 -15 45 -63 98 -113
125 -38 20 -57 22 -256 24 -151 2 -229 -1 -261 -10z m445 -158 c14 -7 30 -26
35 -43 12 -34 71 -310 71 -327 0 -6 -31 -43 -69 -83 -38 -39 -72 -83 -76 -97
-20 -82 227 -399 430 -550 115 -86 209 -139 246 -139 12 0 48 26 87 64 37 35
77 68 89 75 17 9 53 4 180 -23 184 -40 190 -42 203 -67 6 -10 10 -106 10 -215
0 -269 5 -263 -226 -224 -389 67 -767 282 -1021 582 -202 238 -342 535 -393
835 -26 149 -25 168 5 198 24 25 26 25 214 25 122 0 199 -4 215 -11z"/>
</g>
</svg>
